name D:\school\WTK\thesis\model\3dpredictsim\Results\debug_batch\Pog_s1_tmt_bCst_d05_k800_ig24_act_TTC.mot
datacolumns 128
datarows 4
range 1.87576526 1.91328057
endheader
time	pelvis_tilt	pelvis_list	pelvis_rotation	pelvis_tx	pelvis_ty	pelvis_tz	hip_flexion_l	hip_adduction_l	hip_rotation_l	hip_flexion_r	hip_adduction_r	hip_rotation_r	knee_angle_l	knee_angle_r	ankle_angle_l	ankle_angle_r	subtalar_angle_l	subtalar_angle_r	tmt_angle_l	tmt_angle_r	mtp_angle_l	mtp_angle_r	lumbar_extension	lumbar_bending	lumbar_rotation	arm_flex_l	arm_add_l	arm_rot_l	arm_flex_r	arm_add_r	arm_rot_r	elbow_flex_l	elbow_flex_r	pro_sup_l	pro_sup_r	glut_med1_l/activation	glut_med2_l/activation	glut_med3_l/activation	glut_min1_l/activation	glut_min2_l/activation	glut_min3_l/activation	semimem_l/activation	semiten_l/activation	bifemlh_l/activation	bifemsh_l/activation	sar_l/activation	add_long_l/activation	add_brev_l/activation	add_mag1_l/activation	add_mag2_l/activation	add_mag3_l/activation	tfl_l/activation	pect_l/activation	grac_l/activation	glut_max1_l/activation	glut_max2_l/activation	glut_max3_l/activation	iliacus_l/activation	psoas_l/activation	quad_fem_l/activation	gem_l/activation	peri_l/activation	rect_fem_l/activation	vas_med_l/activation	vas_int_l/activation	vas_lat_l/activation	med_gas_l/activation	lat_gas_l/activation	soleus_l/activation	tib_post_l/activation	flex_dig_l/activation	flex_hal_l/activation	tib_ant_l/activation	per_brev_l/activation	per_long_l/activation	per_tert_l/activation	ext_dig_l/activation	ext_hal_l/activation	ercspn_l/activation	intobl_l/activation	extobl_l/activation	glut_med1_r/activation	glut_med2_r/activation	glut_med3_r/activation	glut_min1_r/activation	glut_min2_r/activation	glut_min3_r/activation	semimem_r/activation	semiten_r/activation	bifemlh_r/activation	bifemsh_r/activation	sar_r/activation	add_long_r/activation	add_brev_r/activation	add_mag1_r/activation	add_mag2_r/activation	add_mag3_r/activation	tfl_r/activation	pect_r/activation	grac_r/activation	glut_max1_r/activation	glut_max2_r/activation	glut_max3_r/activation	iliacus_r/activation	psoas_r/activation	quad_fem_r/activation	gem_r/activation	peri_r/activation	rect_fem_r/activation	vas_med_r/activation	vas_int_r/activation	vas_lat_r/activation	med_gas_r/activation	lat_gas_r/activation	soleus_r/activation	tib_post_r/activation	flex_dig_r/activation	flex_hal_r/activation	tib_ant_r/activation	per_brev_r/activation	per_long_r/activation	per_tert_r/activation	ext_dig_r/activation	ext_hal_r/activation	ercspn_r/activation	intobl_r/activation	extobl_r/activation	
          1.87576526	         -2.93017651	          1.73981445	         -8.89990079	          2.34470658	          0.85279890	          0.00382433	         34.00194271	          0.75748455	         -1.00413861	        -16.51853581	         -3.22805084	          7.69498340	        -15.76016343	        -15.50304307	          9.62716451	         -5.79165954	         -0.78290657	         16.64655848	          0.02431085	          1.76129128	         -0.08695555	         27.62885184	         -0.33300869	          0.72609593	          3.27774427	        -13.11657177	        -13.55170703	          6.79841723	          2.92918946	        -13.53058702	         17.57210112	         18.57258084	         48.78901533	         86.51662706	         86.51662706	          0.05000014	          0.05000009	          0.05000041	          0.05000010	          0.05000012	          0.05000037	          0.15742647	          0.06042097	          0.11229178	          0.06042012	          0.05010153	          0.07860930	          0.09848467	          0.18527612	          0.15161263	          0.11033466	          0.05000048	          0.06041541	          0.06042311	          0.05000021	          0.05000224	          0.09255388	          0.06298991	          0.06719661	          0.19531686	          0.05000135	          0.05002231	          0.05000008	          0.08604553	          0.09757427	          0.08268774	          0.06042092	          0.06042093	          0.06042091	          0.05000013	          0.05000032	          0.05013676	          0.49702003	          0.32147750	          0.20212480	          0.07939811	          0.57189655	          0.28624283	          0.05117842	          0.13967499	          0.10944599	          0.15910539	          0.08823100	          0.07796382	          0.19360590	          0.13401845	          0.08671003	          0.05000071	          0.05000008	          0.05000008	          0.05000025	          0.08768758	          0.05000021	          0.05000009	          0.05000010	          0.05000016	          0.05000013	          0.17409236	          0.05000074	          0.05000028	          0.05000219	          0.05000100	          0.05000029	          0.35686060	          0.59077431	          0.05000014	          0.05000058	          0.06279141	          0.21724728	          0.09135981	          0.05009813	          0.07634812	          0.16783250	          0.24800986	          0.05998862	          0.16023738	          0.20536031	          0.21499790	          0.05000002	          0.37223847	          0.33122926	          0.05000004	          0.25421314	          0.05000009	          0.05000000	          0.05000000	          0.05000002	
          1.88827036	         -2.92692516	          1.66451989	         -9.05189576	          2.36511035	          0.85160267	          0.00341389	         33.25881800	          1.04312867	         -0.80565397	        -16.70025601	         -3.41380770	          7.42776922	        -15.76248824	        -16.90067193	          8.97364199	         -8.58073342	         -1.13854850	         16.93133819	          0.04519700	          1.34920934	         -0.08411662	         29.30867209	         -0.06157096	          0.57916418	          3.38752211	        -14.64013817	        -13.52411664	          6.64781310	          2.41139787	        -13.60716840	         17.88062905	         18.59970142	         50.05956492	         86.51662706	         86.51662706	          0.06719607	          0.07113656	          0.05000025	          0.06041943	          0.05756723	          0.05000135	          0.13027483	          0.05000010	          0.09292461	          0.05000009	          0.05000056	          0.06505145	          0.08149887	          0.25729248	          0.18463464	          0.12153147	          0.05000029	          0.05000053	          0.05000190	          0.06042091	          0.09835329	          0.10209823	          0.05212596	          0.05560714	          0.43407575	          0.06042153	          0.08159616	          0.07301371	          0.22805290	          0.22871078	          0.20129672	          0.05000000	          0.05000001	          0.05000000	          0.05000007	          0.07301346	          0.05000056	          0.68065037	          0.36300515	          0.23141009	          0.49794658	          0.65770333	          0.44612825	          0.05000000	          0.11558496	          0.09056962	          0.13166420	          0.07301366	          0.06451740	          0.16021435	          0.11090406	          0.07175506	          0.05000078	          0.05000007	          0.05000010	          0.05000008	          0.07256403	          0.13777954	          0.14930427	          0.13397810	          0.05117755	          0.05000101	          0.14406633	          0.07405879	          0.05000097	          0.05000117	          0.05000092	          0.05000104	          0.29531215	          0.48888232	          0.07301356	          0.07301049	          0.06042107	          0.17977821	          0.07560352	          0.12880836	          0.08210557	          0.13888609	          0.20523510	          0.05000001	          0.13260092	          0.16994141	          0.17791678	          0.25646816	          0.38678909	          0.30800938	          0.48191428	          0.41834810	          0.22111718	          0.05603290	          0.07301370	          0.05982893	
          1.90077546	         -2.91712831	          1.59002658	         -9.16220080	          2.38568942	          0.85007957	          0.00301984	         32.38249455	          1.30856058	         -0.54195856	        -16.67013584	         -3.55562163	          7.15135048	        -16.36219817	        -18.69487419	          8.22131116	        -11.16960499	         -1.51289847	         17.15386503	         -0.04269888	          0.94472820	         -0.15608853	         30.09758837	          0.21237710	          0.41543326	          3.47843317	        -16.12074501	        -13.50958460	          6.59630676	          1.82954784	        -13.69282934	         18.11509322	         18.56334645	         51.30135438	         86.51662706	         86.51662706	          0.25492639	          0.28032644	          0.42154383	          0.05000018	          0.05000010	          0.36355229	          0.12013818	          0.08716891	          0.10480803	          0.05000006	          0.05000015	          0.07301401	          0.18814955	          0.25863910	          0.22989973	          0.16298487	          0.05000010	          0.06045785	          0.13320315	          0.05000008	          0.17697603	          0.16963963	          0.05413967	          0.05000024	          0.35920987	          0.05000061	          0.30081550	          0.06042089	          0.18872019	          0.18926462	          0.16657871	          0.06042090	          0.06042090	          0.06042091	          0.06042086	          0.06042080	          0.06042089	          0.56605050	          0.35343367	          0.19149837	          0.43742617	          0.67275323	          0.44284948	          0.05901375	          0.09564982	          0.07494889	          0.10895591	          0.06042089	          0.05339002	          0.13258192	          0.09177625	          0.05937937	          0.05004429	          0.06042102	          0.06042128	          0.05000023	          0.06004888	          0.16149613	          0.27137729	          0.15233801	          0.08337836	          0.10698771	          0.11921894	          0.06146140	          0.06042119	          0.05414308	          0.06042050	          0.06042120	          0.24437908	          0.43745208	          0.06042098	          0.06041854	          0.05000015	          0.14877150	          0.06256405	          0.10659254	          0.06794467	          0.11493212	          0.16983779	          0.05000000	          0.10973097	          0.14063129	          0.14723113	          0.46305449	          0.45567344	          0.31826638	          0.71746019	          0.54473749	          0.39032751	          0.08286028	          0.06042089	          0.05000003	
          1.91328057	         -2.90382244	          1.52144785	         -9.22690979	          2.40605455	          0.84831500	          0.00262252	         31.43694094	          1.56460673	         -0.24877000	        -16.37390382	         -3.65703199	          6.88288586	        -17.07591116	        -20.96979326	          7.65520365	        -13.18415540	         -1.89303250	         17.30695719	         -0.01917040	          0.65973180	         -0.16085370	         29.07887692	          0.45709814	          0.23112090	          3.54900999	        -17.46897564	        -13.51311610	          6.70392266	          1.24818831	        -13.77466894	         18.27733697	         18.40230906	         52.47519354	         86.51662706	         86.51662706	          0.32525600	          0.42995720	          0.51963764	          0.14476571	          0.24216433	          0.30085005	          0.09941771	          0.10409422	          0.08673163	          0.07301364	          0.05000030	          0.06042115	          0.15569903	          0.21403122	          0.22868842	          0.18052783	          0.05000008	          0.05003068	          0.11022943	          0.28382563	          0.24614904	          0.20601270	          0.05000001	          0.05000002	          0.29725637	          0.07779173	          0.24893344	          0.05000001	          0.15725203	          0.24345212	          0.20469225	          0.05000000	          0.05000000	          0.05000000	          0.05000000	          0.05000009	          0.05000005	          0.74093984	          0.40097006	          0.19871916	          0.69319845	          0.77691034	          0.55702416	          0.07063759	          0.07915294	          0.06202231	          0.17244229	          0.05000009	          0.05000002	          0.17869437	          0.07594747	          0.05000026	          0.05000082	          0.05000013	          0.05000035	          0.05000007	          0.05030650	          0.13364269	          0.22457240	          0.12606404	          0.06899808	          0.08853541	          0.09865706	          0.05383332	          0.05000037	          0.05000048	          0.05000038	          0.05000036	          0.20223056	          0.42433802	          0.05000008	          0.05000023	          0.05000015	          0.12311258	          0.08823100	          0.08823095	          0.06671230	          0.09510955	          0.14054553	          0.05000000	          0.09080545	          0.11637635	          0.12183789	          0.39294583	          0.37708261	          0.26337458	          0.63867255	          0.72114575	          0.32300700	          0.12540011	          0.05000000	          0.05000001	
